<svg xmlns="http://www.w3.org/2000/svg" version="1.1" xmlns:xlink="http://www.w3.org/1999/xlink" xmlns:svgjs="http://svgjs.com/svgjs" width="1440" height="560" preserveAspectRatio="none" viewBox="0 0 1440 560">
    <g mask="url(&quot;#SvgjsMask1018&quot;)" fill="none">
        <rect width="1440" height="560" x="0" y="0" fill="rgba(13, 101, 167, 1)"></rect>
        <path d="M0,376.01C76.174,389.143,156.063,384.66,225.866,351.455C300.782,315.817,377.648,263.073,403.277,184.17C428.504,106.504,368.466,29.522,356.681,-51.283C344.929,-131.864,389.371,-229.692,334.186,-289.574C278.752,-349.726,178.459,-320.01,97.604,-332.41C29.043,-342.925,-37.214,-372.52,-104.794,-356.895C-174.413,-340.799,-229.308,-292.557,-282.264,-244.584C-341.577,-190.852,-408.537,-138.863,-430.443,-61.888C-453.534,19.25,-454.054,116.476,-404.434,184.699C-355.682,251.729,-255.73,245.897,-180.806,281.339C-118.037,311.031,-68.427,364.212,0,376.01" fill="#09426d"></path>
        <path d="M1440 1165.896C1563.935 1181.4 1713.452 1213 1805.175 1128.223 1898.903 1041.593 1852.503 885.274 1878.751 760.371 1898.269 667.494 1947.635 582.729 1939.686 488.156 1931.445 390.10400000000004 1879.372 306.159 1833.269 219.23000000000002 1774.065 107.60000000000002 1750.7-50.34699999999998 1631.641-92.67100000000005 1513.675-134.60699999999997 1403.537-8.380999999999972 1282.445 23.418000000000006 1156.349 56.531000000000006 988.8330000000001-3.3619999999999663 906.531 97.74700000000001 823.678 199.53300000000002 917.292 352.591 907.941 483.501 899.504 601.622 810.909 717.287 854.41 827.4300000000001 898.107 938.0699999999999 1026.182 984.129 1129.172 1043.657 1227.555 1100.522 1327.244 1151.7910000000002 1440 1165.896" fill="#1288e2"></path>
    </g>
    <defs>
        <mask id="SvgjsMask1018">
            <rect width="1440" height="560" fill="#ffffff"></rect>
        </mask>
    </defs>
</svg>